<mxfile host="65bd71144e">
    <diagram id="d2k9UJR3CmxIdJL4uFYe" name="Page-1">
        <mxGraphModel dx="3935" dy="629" grid="0" gridSize="10" guides="1" tooltips="1" connect="1" arrows="1" fold="1" page="1" pageScale="1" pageWidth="3300" pageHeight="4681" math="0" shadow="0">
            <root>
                <mxCell id="0"/>
                <mxCell id="1" parent="0"/>
                <mxCell id="217" value="グローバルナビゲーション（顧客・ログアウト中）" style="shape=table;startSize=26;container=1;collapsible=0;childLayout=tableLayout;fontStyle=1;align=center;shadow=0;strokeColor=#d6b656;fillColor=#fff2cc;rounded=1;strokeWidth=3;" parent="1" vertex="1">
                    <mxGeometry x="1277" y="41" width="762" height="52" as="geometry"/>
                </mxCell>
                <mxCell id="218" value="" style="shape=tableRow;horizontal=0;startSize=0;swimlaneHead=0;swimlaneBody=0;top=0;left=0;bottom=0;right=0;collapsible=0;dropTarget=0;fillColor=none;points=[[0,0.5],[1,0.5]];portConstraint=eastwest;shadow=0;strokeColor=default;rounded=1;strokeWidth=3;" parent="217" vertex="1">
                    <mxGeometry y="26" width="762" height="26" as="geometry"/>
                </mxCell>
                <mxCell id="219" value="「ホーム」をクリック" style="shape=partialRectangle;html=1;whiteSpace=wrap;connectable=0;fillColor=none;top=0;left=0;bottom=0;right=0;overflow=hidden;shadow=0;strokeColor=default;align=center;rounded=1;strokeWidth=3;" parent="218" vertex="1">
                    <mxGeometry width="191" height="26" as="geometry">
                        <mxRectangle width="191" height="26" as="alternateBounds"/>
                    </mxGeometry>
                </mxCell>
                <mxCell id="849" value="「管理者ログイン」をクリック" style="shape=partialRectangle;html=1;whiteSpace=wrap;connectable=0;fillColor=none;top=0;left=0;bottom=0;right=0;overflow=hidden;shadow=0;strokeColor=default;align=center;rounded=1;strokeWidth=3;" parent="218" vertex="1">
                    <mxGeometry x="191" width="191" height="26" as="geometry">
                        <mxRectangle width="191" height="26" as="alternateBounds"/>
                    </mxGeometry>
                </mxCell>
                <mxCell id="263" value="「利用者ログイン」をクリック" style="shape=partialRectangle;html=1;whiteSpace=wrap;connectable=0;fillColor=none;top=0;left=0;bottom=0;right=0;overflow=hidden;shadow=0;strokeColor=default;align=center;rounded=1;strokeWidth=3;" parent="218" vertex="1">
                    <mxGeometry x="382" width="191" height="26" as="geometry">
                        <mxRectangle width="191" height="26" as="alternateBounds"/>
                    </mxGeometry>
                </mxCell>
                <mxCell id="220" value="「新規会員登録」をクリック" style="shape=partialRectangle;html=1;whiteSpace=wrap;connectable=0;fillColor=none;top=0;left=0;bottom=0;right=0;overflow=hidden;shadow=0;strokeColor=default;align=center;rounded=1;strokeWidth=3;" parent="218" vertex="1">
                    <mxGeometry x="573" width="189" height="26" as="geometry">
                        <mxRectangle width="189" height="26" as="alternateBounds"/>
                    </mxGeometry>
                </mxCell>
                <mxCell id="221" value="「アカウント」登録画面" style="swimlane;fontStyle=1;childLayout=stackLayout;horizontal=1;startSize=26;fillColor=#fff2cc;horizontalStack=0;resizeParent=1;resizeParentMax=0;resizeLast=0;collapsible=1;marginBottom=0;html=1;shadow=0;strokeColor=#d6b656;fontFamily=Helvetica;fontSize=12;rounded=1;strokeWidth=3;" parent="1" vertex="1">
                    <mxGeometry x="2014" y="149" width="161" height="52" as="geometry"/>
                </mxCell>
                <mxCell id="222" value="「登録する」をクリック" style="text;strokeColor=none;fillColor=none;align=center;verticalAlign=top;spacingLeft=4;spacingRight=4;overflow=hidden;rotatable=0;points=[[0,0.5],[1,0.5]];portConstraint=eastwest;whiteSpace=wrap;html=1;shadow=0;fontFamily=Helvetica;fontSize=12;fontColor=default;startSize=30;rounded=1;strokeWidth=3;" parent="221" vertex="1">
                    <mxGeometry y="26" width="161" height="26" as="geometry"/>
                </mxCell>
                <mxCell id="227" value="" style="endArrow=classic;html=1;fontFamily=Helvetica;fontSize=12;fontColor=default;startSize=30;edgeStyle=orthogonalEdgeStyle;elbow=vertical;curved=1;rounded=1;strokeWidth=3;" parent="1" edge="1">
                    <mxGeometry width="50" height="50" relative="1" as="geometry">
                        <mxPoint x="2181" y="192" as="sourcePoint"/>
                        <mxPoint x="2179" y="165" as="targetPoint"/>
                        <Array as="points">
                            <mxPoint x="2223" y="192"/>
                            <mxPoint x="2223" y="165"/>
                        </Array>
                    </mxGeometry>
                </mxCell>
                <mxCell id="228" value="失敗" style="text;strokeColor=none;fillColor=none;align=left;verticalAlign=top;spacingLeft=4;spacingRight=4;overflow=hidden;rotatable=0;points=[[0,0.5],[1,0.5]];portConstraint=eastwest;whiteSpace=wrap;html=1;shadow=0;fontFamily=Helvetica;fontSize=10;fontColor=default;startSize=30;fontStyle=1;rounded=1;strokeWidth=3;" parent="1" vertex="1">
                    <mxGeometry x="2203" y="139" width="37" height="21" as="geometry"/>
                </mxCell>
                <mxCell id="231" value="グローバルナビゲーション（顧客・ログイン中）" style="shape=table;startSize=26;container=1;collapsible=0;childLayout=tableLayout;fontStyle=1;align=center;shadow=0;strokeColor=#d6b656;fillColor=#fff2cc;rounded=1;strokeWidth=3;" parent="1" vertex="1">
                    <mxGeometry x="-216" y="43" width="905" height="52" as="geometry"/>
                </mxCell>
                <mxCell id="232" value="" style="shape=tableRow;horizontal=0;startSize=0;swimlaneHead=0;swimlaneBody=0;top=0;left=0;bottom=0;right=0;collapsible=0;dropTarget=0;fillColor=none;points=[[0,0.5],[1,0.5]];portConstraint=eastwest;shadow=0;strokeColor=default;rounded=1;strokeWidth=3;" parent="231" vertex="1">
                    <mxGeometry y="26" width="905" height="26" as="geometry"/>
                </mxCell>
                <mxCell id="519" value="「ホーム」をクリック" style="shape=partialRectangle;html=1;whiteSpace=wrap;connectable=0;fillColor=none;top=0;left=0;bottom=0;right=0;overflow=hidden;shadow=0;strokeColor=default;align=center;rounded=1;strokeWidth=3;" parent="232" vertex="1">
                    <mxGeometry width="182" height="26" as="geometry">
                        <mxRectangle width="182" height="26" as="alternateBounds"/>
                    </mxGeometry>
                </mxCell>
                <mxCell id="284" value="「商品」をクリック" style="shape=partialRectangle;html=1;whiteSpace=wrap;connectable=0;fillColor=none;top=0;left=0;bottom=0;right=0;overflow=hidden;shadow=0;strokeColor=default;align=center;rounded=1;strokeWidth=3;" parent="232" vertex="1">
                    <mxGeometry x="182" width="182" height="26" as="geometry">
                        <mxRectangle width="182" height="26" as="alternateBounds"/>
                    </mxGeometry>
                </mxCell>
                <mxCell id="283" value="「買い物かご」をクリック" style="shape=partialRectangle;html=1;whiteSpace=wrap;connectable=0;fillColor=none;top=0;left=0;bottom=0;right=0;overflow=hidden;shadow=0;strokeColor=default;align=center;rounded=1;strokeWidth=3;" parent="232" vertex="1">
                    <mxGeometry x="364" width="182" height="26" as="geometry">
                        <mxRectangle width="182" height="26" as="alternateBounds"/>
                    </mxGeometry>
                </mxCell>
                <mxCell id="233" value="「お問い合わせ」をクリック" style="shape=partialRectangle;html=1;whiteSpace=wrap;connectable=0;fillColor=none;top=0;left=0;bottom=0;right=0;overflow=hidden;shadow=0;strokeColor=default;align=center;rounded=1;strokeWidth=3;" parent="232" vertex="1">
                    <mxGeometry x="546" width="179" height="26" as="geometry">
                        <mxRectangle width="179" height="26" as="alternateBounds"/>
                    </mxGeometry>
                </mxCell>
                <mxCell id="234" value="「アカウント」をクリック" style="shape=partialRectangle;html=1;whiteSpace=wrap;connectable=0;fillColor=none;top=0;left=0;bottom=0;right=0;overflow=hidden;shadow=0;strokeColor=default;align=center;rounded=1;strokeWidth=3;" parent="232" vertex="1">
                    <mxGeometry x="725" width="180" height="26" as="geometry">
                        <mxRectangle width="180" height="26" as="alternateBounds"/>
                    </mxGeometry>
                </mxCell>
                <mxCell id="253" value="「商品一覧」画面" style="swimlane;fontStyle=1;childLayout=stackLayout;horizontal=1;startSize=30;horizontalStack=0;resizeParent=1;resizeParentMax=0;resizeLast=0;collapsible=1;marginBottom=0;whiteSpace=wrap;html=1;shadow=0;strokeColor=#d6b656;fontFamily=Helvetica;fontSize=12;fillColor=#fff2cc;align=center;rounded=1;strokeWidth=3;" parent="1" vertex="1">
                    <mxGeometry x="-212" y="367" width="193" height="60" as="geometry"/>
                </mxCell>
                <mxCell id="254" value="「詳細」をクリック" style="text;align=center;verticalAlign=middle;spacingLeft=4;spacingRight=4;overflow=hidden;points=[[0,0.5],[1,0.5]];portConstraint=eastwest;rotatable=0;whiteSpace=wrap;html=1;shadow=0;fontFamily=Helvetica;fontSize=12;strokeColor=#D6B656;rounded=1;strokeWidth=3;" parent="253" vertex="1">
                    <mxGeometry y="30" width="193" height="30" as="geometry"/>
                </mxCell>
                <mxCell id="259" value="成功" style="text;strokeColor=none;fillColor=none;align=left;verticalAlign=top;spacingLeft=4;spacingRight=4;overflow=hidden;rotatable=0;points=[[0,0.5],[1,0.5]];portConstraint=eastwest;whiteSpace=wrap;html=1;shadow=0;fontFamily=Helvetica;fontSize=10;fontColor=default;startSize=30;fontStyle=1;rounded=1;strokeWidth=3;" parent="1" vertex="1">
                    <mxGeometry x="1869" y="217" width="37" height="21" as="geometry"/>
                </mxCell>
                <mxCell id="261" value="成功" style="text;strokeColor=none;fillColor=none;align=left;verticalAlign=top;spacingLeft=4;spacingRight=4;overflow=hidden;rotatable=0;points=[[0,0.5],[1,0.5]];portConstraint=eastwest;whiteSpace=wrap;html=1;shadow=0;fontFamily=Helvetica;fontSize=10;fontColor=default;startSize=30;fontStyle=1;rounded=1;strokeWidth=3;" parent="1" vertex="1">
                    <mxGeometry x="2111" y="211" width="37" height="21" as="geometry"/>
                </mxCell>
                <mxCell id="265" value="失敗" style="text;strokeColor=none;fillColor=none;align=left;verticalAlign=top;spacingLeft=4;spacingRight=4;overflow=hidden;rotatable=0;points=[[0,0.5],[1,0.5]];portConstraint=eastwest;whiteSpace=wrap;html=1;shadow=0;fontFamily=Helvetica;fontSize=10;fontColor=default;startSize=30;fontStyle=1;rounded=1;strokeWidth=3;" parent="1" vertex="1">
                    <mxGeometry x="1944" y="143" width="37" height="21" as="geometry"/>
                </mxCell>
                <mxCell id="266" value="" style="endArrow=classic;html=1;fontFamily=Helvetica;fontSize=12;fontColor=default;startSize=30;edgeStyle=orthogonalEdgeStyle;elbow=vertical;curved=1;rounded=1;strokeWidth=3;" parent="1" edge="1">
                    <mxGeometry width="50" height="50" relative="1" as="geometry">
                        <mxPoint x="1911" y="193" as="sourcePoint"/>
                        <mxPoint x="1909" y="166" as="targetPoint"/>
                        <Array as="points">
                            <mxPoint x="1953" y="193"/>
                            <mxPoint x="1953" y="166"/>
                        </Array>
                    </mxGeometry>
                </mxCell>
                <mxCell id="267" value="「ログイン」画面" style="swimlane;fontStyle=1;childLayout=stackLayout;horizontal=1;startSize=26;fillColor=#fff2cc;horizontalStack=0;resizeParent=1;resizeParentMax=0;resizeLast=0;collapsible=1;marginBottom=0;html=1;shadow=0;strokeColor=#d6b656;fontFamily=Helvetica;fontSize=12;rounded=1;strokeWidth=3;" parent="1" vertex="1">
                    <mxGeometry x="1729" y="152.5" width="177" height="52" as="geometry"/>
                </mxCell>
                <mxCell id="268" value="「ログインする」をクリック" style="text;strokeColor=none;fillColor=none;align=center;verticalAlign=top;spacingLeft=4;spacingRight=4;overflow=hidden;rotatable=0;points=[[0,0.5],[1,0.5]];portConstraint=eastwest;whiteSpace=wrap;html=1;shadow=0;fontFamily=Helvetica;fontSize=12;fontColor=default;startSize=30;rounded=1;strokeWidth=3;" parent="267" vertex="1">
                    <mxGeometry y="26" width="177" height="26" as="geometry"/>
                </mxCell>
                <mxCell id="832" style="edgeStyle=none;shape=flexArrow;html=1;dashed=1;strokeWidth=3;endArrow=block;endFill=1;opacity=20;" parent="1" source="343" edge="1">
                    <mxGeometry relative="1" as="geometry">
                        <mxPoint x="867" y="334" as="targetPoint"/>
                    </mxGeometry>
                </mxCell>
                <mxCell id="343" value="「顧客情報編集」画面" style="swimlane;fontStyle=1;childLayout=stackLayout;horizontal=1;startSize=30;horizontalStack=0;resizeParent=1;resizeParentMax=0;resizeLast=0;collapsible=1;marginBottom=0;whiteSpace=wrap;html=1;shadow=0;strokeColor=#d6b656;fontFamily=Helvetica;fontSize=12;fillColor=#fff2cc;align=center;rounded=1;strokeWidth=3;" parent="1" vertex="1">
                    <mxGeometry x="765.5" y="359" width="169" height="90" as="geometry"/>
                </mxCell>
                <mxCell id="345" value="「編集」をクリック" style="text;strokeColor=#D6B656;fillColor=none;align=center;verticalAlign=middle;spacingLeft=4;spacingRight=4;overflow=hidden;points=[[0,0.5],[1,0.5]];portConstraint=eastwest;rotatable=0;whiteSpace=wrap;html=1;shadow=0;fontFamily=Helvetica;fontSize=12;fontColor=default;rounded=1;strokeWidth=3;" parent="343" vertex="1">
                    <mxGeometry y="30" width="169" height="30" as="geometry"/>
                </mxCell>
                <mxCell id="346" value="「削除」をクリック" style="text;strokeColor=#D6B656;fillColor=none;align=center;verticalAlign=middle;spacingLeft=4;spacingRight=4;overflow=hidden;points=[[0,0.5],[1,0.5]];portConstraint=eastwest;rotatable=0;whiteSpace=wrap;html=1;shadow=0;fontFamily=Helvetica;fontSize=12;fontColor=default;rounded=1;strokeWidth=3;" parent="343" vertex="1">
                    <mxGeometry y="60" width="169" height="30" as="geometry"/>
                </mxCell>
                <mxCell id="347" value="「注文履歴一覧」画面" style="swimlane;fontStyle=1;childLayout=stackLayout;horizontal=1;startSize=30;horizontalStack=0;resizeParent=1;resizeParentMax=0;resizeLast=0;collapsible=1;marginBottom=0;whiteSpace=wrap;html=1;shadow=0;strokeColor=#d6b656;fontFamily=Helvetica;fontSize=12;fillColor=#fff2cc;align=center;rounded=1;strokeWidth=3;" parent="1" vertex="1">
                    <mxGeometry x="71.5" y="500.77" width="180" height="60" as="geometry"/>
                </mxCell>
                <mxCell id="348" value="「注文履歴」をクリック" style="text;strokeColor=#D6B656;fillColor=none;align=center;verticalAlign=middle;spacingLeft=4;spacingRight=4;overflow=hidden;points=[[0,0.5],[1,0.5]];portConstraint=eastwest;rotatable=0;whiteSpace=wrap;html=1;shadow=0;fontFamily=Helvetica;fontSize=12;fontColor=default;rounded=1;strokeWidth=3;" parent="347" vertex="1">
                    <mxGeometry y="30" width="180" height="30" as="geometry"/>
                </mxCell>
                <mxCell id="350" value="「アカウント」の項目" style="swimlane;fontStyle=1;childLayout=stackLayout;horizontal=1;startSize=30;horizontalStack=0;resizeParent=1;resizeParentMax=0;resizeLast=0;collapsible=1;marginBottom=0;whiteSpace=wrap;html=1;shadow=0;strokeColor=#d6b656;fontFamily=Helvetica;fontSize=12;fillColor=#fff2cc;align=center;rounded=1;strokeWidth=3;" parent="1" vertex="1">
                    <mxGeometry x="774" y="159" width="169" height="120" as="geometry"/>
                </mxCell>
                <mxCell id="351" value="「顧客情報設定」をクリック" style="text;align=center;verticalAlign=middle;spacingLeft=4;spacingRight=4;overflow=hidden;points=[[0,0.5],[1,0.5]];portConstraint=eastwest;rotatable=0;whiteSpace=wrap;html=1;shadow=0;fontFamily=Helvetica;fontSize=12;strokeColor=#D6B656;rounded=1;strokeWidth=3;" parent="350" vertex="1">
                    <mxGeometry y="30" width="169" height="30" as="geometry"/>
                </mxCell>
                <mxCell id="352" value="「注文履歴」をクリック" style="text;strokeColor=#D6B656;fillColor=none;align=center;verticalAlign=middle;spacingLeft=4;spacingRight=4;overflow=hidden;points=[[0,0.5],[1,0.5]];portConstraint=eastwest;rotatable=0;whiteSpace=wrap;html=1;shadow=0;fontFamily=Helvetica;fontSize=12;fontColor=default;rounded=1;strokeWidth=3;" parent="350" vertex="1">
                    <mxGeometry y="60" width="169" height="30" as="geometry"/>
                </mxCell>
                <mxCell id="353" value="「ログアウト」をクリック" style="text;strokeColor=#D6B656;fillColor=none;align=center;verticalAlign=middle;spacingLeft=4;spacingRight=4;overflow=hidden;points=[[0,0.5],[1,0.5]];portConstraint=eastwest;rotatable=0;whiteSpace=wrap;html=1;shadow=0;fontFamily=Helvetica;fontSize=12;fontColor=default;rounded=1;strokeWidth=3;" parent="350" vertex="1">
                    <mxGeometry y="90" width="169" height="30" as="geometry"/>
                </mxCell>
                <mxCell id="354" value="「商品詳細」画面" style="swimlane;fontStyle=1;childLayout=stackLayout;horizontal=1;startSize=30;horizontalStack=0;resizeParent=1;resizeParentMax=0;resizeLast=0;collapsible=1;marginBottom=0;whiteSpace=wrap;html=1;shadow=0;strokeColor=#d6b656;fontFamily=Helvetica;fontSize=12;fillColor=#fff2cc;align=center;rounded=1;strokeWidth=3;" parent="1" vertex="1">
                    <mxGeometry x="-208" y="258" width="188" height="60" as="geometry"/>
                </mxCell>
                <mxCell id="355" value="「カート追加」をクリック" style="text;align=center;verticalAlign=middle;spacingLeft=4;spacingRight=4;overflow=hidden;points=[[0,0.5],[1,0.5]];portConstraint=eastwest;rotatable=0;whiteSpace=wrap;html=1;shadow=0;fontFamily=Helvetica;fontSize=12;strokeColor=#D6B656;rounded=1;strokeWidth=3;" parent="354" vertex="1">
                    <mxGeometry y="30" width="188" height="30" as="geometry"/>
                </mxCell>
                <mxCell id="356" value="「買い物かご」画面" style="swimlane;fontStyle=1;childLayout=stackLayout;horizontal=1;startSize=30;horizontalStack=0;resizeParent=1;resizeParentMax=0;resizeLast=0;collapsible=1;marginBottom=0;whiteSpace=wrap;html=1;shadow=0;strokeColor=#d6b656;fontFamily=Helvetica;fontSize=12;fillColor=#fff2cc;align=center;rounded=1;strokeWidth=3;" parent="1" vertex="1">
                    <mxGeometry x="70" y="148" width="173.5" height="60" as="geometry"/>
                </mxCell>
                <mxCell id="357" value="「お会計」をクリック" style="text;align=center;verticalAlign=middle;spacingLeft=4;spacingRight=4;overflow=hidden;points=[[0,0.5],[1,0.5]];portConstraint=eastwest;rotatable=0;whiteSpace=wrap;html=1;shadow=0;fontFamily=Helvetica;fontSize=12;strokeColor=#D6B656;rounded=1;strokeWidth=3;" parent="356" vertex="1">
                    <mxGeometry y="30" width="173.5" height="30" as="geometry"/>
                </mxCell>
                <mxCell id="358" value="「支払い」画面" style="swimlane;fontStyle=1;childLayout=stackLayout;horizontal=1;startSize=30;horizontalStack=0;resizeParent=1;resizeParentMax=0;resizeLast=0;collapsible=1;marginBottom=0;whiteSpace=wrap;html=1;shadow=0;strokeColor=#d6b656;fontFamily=Helvetica;fontSize=12;fillColor=#fff2cc;align=center;rounded=1;strokeWidth=3;" parent="1" vertex="1">
                    <mxGeometry x="68.5" y="253" width="175" height="91" as="geometry"/>
                </mxCell>
                <mxCell id="772" value="「支払う」をクリック" style="text;align=center;verticalAlign=middle;spacingLeft=4;spacingRight=4;overflow=hidden;points=[[0,0.5],[1,0.5]];portConstraint=eastwest;rotatable=0;whiteSpace=wrap;html=1;shadow=0;fontFamily=Helvetica;fontSize=12;strokeColor=#D6B656;rounded=1;strokeWidth=3;" parent="358" vertex="1">
                    <mxGeometry y="30" width="175" height="30" as="geometry"/>
                </mxCell>
                <mxCell id="359" value="「戻る」をクリック" style="text;align=center;verticalAlign=middle;spacingLeft=4;spacingRight=4;overflow=hidden;points=[[0,0.5],[1,0.5]];portConstraint=eastwest;rotatable=0;whiteSpace=wrap;html=1;shadow=0;fontFamily=Helvetica;fontSize=12;strokeColor=#D6B656;rounded=1;strokeWidth=3;" parent="358" vertex="1">
                    <mxGeometry y="60" width="175" height="31" as="geometry"/>
                </mxCell>
                <mxCell id="817" value="" style="edgeStyle=none;shape=flexArrow;html=1;dashed=1;strokeWidth=3;endArrow=block;endFill=1;opacity=20;" parent="1" source="360" target="359" edge="1">
                    <mxGeometry relative="1" as="geometry"/>
                </mxCell>
                <mxCell id="360" value="「支払い成功」画面" style="swimlane;fontStyle=1;childLayout=stackLayout;horizontal=1;startSize=30;horizontalStack=0;resizeParent=1;resizeParentMax=0;resizeLast=0;collapsible=1;marginBottom=0;whiteSpace=wrap;html=1;shadow=0;strokeColor=#d6b656;fontFamily=Helvetica;fontSize=12;fillColor=#fff2cc;align=center;rounded=1;strokeWidth=3;" parent="1" vertex="1">
                    <mxGeometry x="68.5" y="397.77" width="177.5" height="60" as="geometry"/>
                </mxCell>
                <mxCell id="361" value="「注文履歴へ進む」をクリック" style="text;align=center;verticalAlign=middle;spacingLeft=4;spacingRight=4;overflow=hidden;points=[[0,0.5],[1,0.5]];portConstraint=eastwest;rotatable=0;whiteSpace=wrap;html=1;shadow=0;fontFamily=Helvetica;fontSize=12;strokeColor=#D6B656;rounded=1;strokeWidth=3;" parent="360" vertex="1">
                    <mxGeometry y="30" width="177.5" height="30" as="geometry"/>
                </mxCell>
                <mxCell id="362" value="「注文履歴詳細」画面" style="swimlane;fontStyle=1;childLayout=stackLayout;horizontal=1;startSize=30;horizontalStack=0;resizeParent=1;resizeParentMax=0;resizeLast=0;collapsible=1;marginBottom=0;whiteSpace=wrap;html=1;shadow=0;strokeColor=#d6b656;fontFamily=Helvetica;fontSize=12;fillColor=#fff2cc;align=center;rounded=1;strokeWidth=3;" parent="1" vertex="1">
                    <mxGeometry x="-213" y="466" width="194" height="60" as="geometry"/>
                </mxCell>
                <mxCell id="363" value="「商品名」をクリック" style="text;strokeColor=#D6B656;fillColor=none;align=center;verticalAlign=middle;spacingLeft=4;spacingRight=4;overflow=hidden;points=[[0,0.5],[1,0.5]];portConstraint=eastwest;rotatable=0;whiteSpace=wrap;html=1;shadow=0;fontFamily=Helvetica;fontSize=12;fontColor=default;rounded=1;strokeWidth=3;" parent="362" vertex="1">
                    <mxGeometry y="30" width="194" height="30" as="geometry"/>
                </mxCell>
                <mxCell id="364" value="「問い合わせフォーム」画面" style="swimlane;fontStyle=1;childLayout=stackLayout;horizontal=1;startSize=30;horizontalStack=0;resizeParent=1;resizeParentMax=0;resizeLast=0;collapsible=1;marginBottom=0;whiteSpace=wrap;html=1;shadow=0;strokeColor=#d6b656;fontFamily=Helvetica;fontSize=12;fillColor=#fff2cc;align=center;rounded=1;strokeWidth=3;" parent="1" vertex="1">
                    <mxGeometry x="454" y="148" width="174" height="60" as="geometry"/>
                </mxCell>
                <mxCell id="365" value="「送信」をクリック" style="text;align=center;verticalAlign=middle;spacingLeft=4;spacingRight=4;overflow=hidden;points=[[0,0.5],[1,0.5]];portConstraint=eastwest;rotatable=0;whiteSpace=wrap;html=1;shadow=0;fontFamily=Helvetica;fontSize=12;strokeColor=#D6B656;rounded=1;strokeWidth=3;" parent="364" vertex="1">
                    <mxGeometry y="30" width="174" height="30" as="geometry"/>
                </mxCell>
                <mxCell id="366" value="" style="edgeStyle=orthogonalEdgeStyle;endArrow=classic;html=1;rounded=1;endSize=8;startSize=8;strokeWidth=3;entryX=0;entryY=0.25;entryDx=0;entryDy=0;exitX=0.712;exitY=1.212;exitDx=0;exitDy=0;exitPerimeter=0;" parent="1" source="268" target="253" edge="1">
                    <mxGeometry width="50" height="50" relative="1" as="geometry">
                        <mxPoint x="1630" y="215" as="sourcePoint"/>
                        <mxPoint x="-236" y="387" as="targetPoint"/>
                        <Array as="points">
                            <mxPoint x="1855" y="788"/>
                            <mxPoint x="-244" y="788"/>
                            <mxPoint x="-244" y="382"/>
                        </Array>
                    </mxGeometry>
                </mxCell>
                <mxCell id="369" value="" style="edgeStyle=orthogonalEdgeStyle;endArrow=classic;html=1;rounded=1;endSize=8;startSize=8;strokeWidth=3;entryX=0.207;entryY=-0.083;entryDx=0;entryDy=0;entryPerimeter=0;" parent="1" target="253" edge="1">
                    <mxGeometry width="50" height="50" relative="1" as="geometry">
                        <mxPoint x="2100" y="204" as="sourcePoint"/>
                        <mxPoint x="-256" y="344" as="targetPoint"/>
                        <Array as="points">
                            <mxPoint x="2100" y="728"/>
                            <mxPoint x="-263" y="728"/>
                            <mxPoint x="-263" y="332"/>
                            <mxPoint x="-172" y="332"/>
                        </Array>
                    </mxGeometry>
                </mxCell>
                <mxCell id="370" value="" style="edgeStyle=segmentEdgeStyle;endArrow=classic;html=1;curved=0;rounded=1;endSize=8;startSize=8;labelBackgroundColor=default;strokeColor=default;fontFamily=Helvetica;fontSize=11;fontColor=default;shape=connector;strokeWidth=3;" parent="1" edge="1">
                    <mxGeometry width="50" height="50" relative="1" as="geometry">
                        <mxPoint x="-116" y="361" as="sourcePoint"/>
                        <mxPoint x="-116" y="325" as="targetPoint"/>
                        <Array as="points">
                            <mxPoint x="-116" y="340"/>
                            <mxPoint x="-116" y="340"/>
                        </Array>
                    </mxGeometry>
                </mxCell>
                <mxCell id="371" value="" style="edgeStyle=elbowEdgeStyle;elbow=vertical;endArrow=classic;html=1;curved=0;rounded=1;endSize=8;startSize=8;labelBackgroundColor=default;strokeColor=default;fontFamily=Helvetica;fontSize=11;fontColor=default;shape=connector;strokeWidth=3;exitX=0.246;exitY=1.038;exitDx=0;exitDy=0;exitPerimeter=0;" parent="1" source="232" edge="1">
                    <mxGeometry width="50" height="50" relative="1" as="geometry">
                        <mxPoint x="44" y="95" as="sourcePoint"/>
                        <mxPoint x="-76" y="363" as="targetPoint"/>
                        <Array as="points">
                            <mxPoint x="-52" y="333"/>
                            <mxPoint x="-69" y="339"/>
                            <mxPoint x="8" y="330"/>
                            <mxPoint x="24" y="384"/>
                        </Array>
                    </mxGeometry>
                </mxCell>
                <mxCell id="372" value="" style="edgeStyle=elbowEdgeStyle;elbow=vertical;endArrow=classic;html=1;curved=0;rounded=1;endSize=8;startSize=8;labelBackgroundColor=default;strokeColor=default;fontFamily=Helvetica;fontSize=11;fontColor=default;shape=connector;entryX=-0.035;entryY=-0.267;entryDx=0;entryDy=0;entryPerimeter=0;strokeWidth=3;" parent="1" target="357" edge="1">
                    <mxGeometry width="50" height="50" relative="1" as="geometry">
                        <mxPoint x="-99" y="253" as="sourcePoint"/>
                        <mxPoint x="106" y="195" as="targetPoint"/>
                        <Array as="points">
                            <mxPoint x="-16" y="170"/>
                            <mxPoint x="-95" y="182"/>
                        </Array>
                    </mxGeometry>
                </mxCell>
                <mxCell id="378" value="" style="endArrow=classic;html=1;fontFamily=Helvetica;fontSize=12;fontColor=default;startSize=30;edgeStyle=elbowEdgeStyle;elbow=vertical;entryX=0.458;entryY=0;entryDx=0;entryDy=0;entryPerimeter=0;rounded=1;strokeWidth=3;" parent="1" target="491" edge="1">
                    <mxGeometry width="50" height="50" relative="1" as="geometry">
                        <mxPoint x="1380.5" y="93" as="sourcePoint"/>
                        <mxPoint x="1304" y="150" as="targetPoint"/>
                        <Array as="points">
                            <mxPoint x="1345" y="117"/>
                        </Array>
                    </mxGeometry>
                </mxCell>
                <mxCell id="388" value="" style="endArrow=classic;html=1;fontFamily=Helvetica;fontSize=12;fontColor=default;startSize=30;fontStyle=1;rounded=1;strokeWidth=3;" parent="1" edge="1">
                    <mxGeometry width="50" height="50" relative="1" as="geometry">
                        <mxPoint x="156.25" y="237" as="sourcePoint"/>
                        <mxPoint x="156.25" y="250" as="targetPoint"/>
                        <Array as="points">
                            <mxPoint x="156.25" y="208"/>
                        </Array>
                    </mxGeometry>
                </mxCell>
                <mxCell id="391" value="" style="endArrow=classic;html=1;fontFamily=Helvetica;fontSize=12;fontColor=default;startSize=30;rounded=1;strokeWidth=3;" parent="1" edge="1">
                    <mxGeometry width="50" height="50" relative="1" as="geometry">
                        <mxPoint x="154" y="486.77" as="sourcePoint"/>
                        <mxPoint x="154" y="499.77" as="targetPoint"/>
                        <Array as="points">
                            <mxPoint x="154" y="457.77"/>
                        </Array>
                    </mxGeometry>
                </mxCell>
                <mxCell id="402" value="" style="edgeStyle=segmentEdgeStyle;endArrow=classic;html=1;curved=0;rounded=1;endSize=8;startSize=8;labelBackgroundColor=default;strokeColor=default;fontFamily=Helvetica;fontSize=11;fontColor=default;shape=connector;strokeWidth=3;" parent="1" edge="1">
                    <mxGeometry width="50" height="50" relative="1" as="geometry">
                        <mxPoint x="-213" y="511" as="sourcePoint"/>
                        <mxPoint x="-213" y="276" as="targetPoint"/>
                        <Array as="points">
                            <mxPoint x="-288" y="511"/>
                            <mxPoint x="-288" y="276"/>
                        </Array>
                    </mxGeometry>
                </mxCell>
                <mxCell id="409" value="" style="edgeStyle=segmentEdgeStyle;endArrow=classic;html=1;curved=0;rounded=1;endSize=8;startSize=8;labelBackgroundColor=default;strokeColor=default;fontFamily=Helvetica;fontSize=11;fontColor=default;shape=connector;strokeWidth=3;" parent="1" edge="1">
                    <mxGeometry width="50" height="50" relative="1" as="geometry">
                        <mxPoint x="69" y="546" as="sourcePoint"/>
                        <mxPoint x="-15" y="474" as="targetPoint"/>
                        <Array as="points">
                            <mxPoint x="20" y="546"/>
                            <mxPoint x="20" y="474"/>
                        </Array>
                    </mxGeometry>
                </mxCell>
                <mxCell id="410" value="" style="edgeStyle=segmentEdgeStyle;endArrow=classic;html=1;curved=0;rounded=1;endSize=8;startSize=8;labelBackgroundColor=default;strokeColor=default;fontFamily=Helvetica;fontSize=11;fontColor=default;shape=connector;exitX=0;exitY=0.5;exitDx=0;exitDy=0;entryX=1.053;entryY=0.641;entryDx=0;entryDy=0;entryPerimeter=0;strokeWidth=3;" parent="1" target="348" edge="1" source="352">
                    <mxGeometry width="50" height="50" relative="1" as="geometry">
                        <mxPoint x="515" y="231.01" as="sourcePoint"/>
                        <mxPoint x="291" y="550" as="targetPoint"/>
                        <Array as="points">
                            <mxPoint x="774" y="236"/>
                            <mxPoint x="380" y="236"/>
                            <mxPoint x="380" y="550"/>
                        </Array>
                    </mxGeometry>
                </mxCell>
                <mxCell id="414" value="" style="edgeStyle=orthogonalEdgeStyle;endArrow=classic;html=1;rounded=1;endSize=8;startSize=8;labelBackgroundColor=default;strokeColor=default;fontFamily=Helvetica;fontSize=11;fontColor=default;shape=connector;strokeWidth=3;" parent="1" edge="1">
                    <mxGeometry width="50" height="50" relative="1" as="geometry">
                        <mxPoint x="761" y="402" as="sourcePoint"/>
                        <mxPoint x="-548" y="215" as="targetPoint"/>
                        <Array as="points">
                            <mxPoint x="761" y="402"/>
                            <mxPoint x="466" y="402"/>
                            <mxPoint x="466" y="830"/>
                            <mxPoint x="-1018" y="830"/>
                            <mxPoint x="-1018" y="215"/>
                        </Array>
                    </mxGeometry>
                </mxCell>
                <mxCell id="491" value="「ホーム」画面" style="swimlane;fontStyle=1;childLayout=stackLayout;horizontal=1;startSize=26;fillColor=#fff2cc;horizontalStack=0;resizeParent=1;resizeParentMax=0;resizeLast=0;collapsible=1;marginBottom=0;html=1;shadow=0;strokeColor=#d6b656;fontFamily=Helvetica;fontSize=12;rounded=1;strokeWidth=3;" parent="1" vertex="1">
                    <mxGeometry x="1217" y="154" width="177" height="52" as="geometry"/>
                </mxCell>
                <mxCell id="492" value="「商品を探す」をクリック" style="text;strokeColor=none;fillColor=none;align=center;verticalAlign=top;spacingLeft=4;spacingRight=4;overflow=hidden;rotatable=0;points=[[0,0.5],[1,0.5]];portConstraint=eastwest;whiteSpace=wrap;html=1;shadow=0;fontFamily=Helvetica;fontSize=12;fontColor=default;startSize=30;rounded=1;strokeWidth=3;" parent="491" vertex="1">
                    <mxGeometry y="26" width="177" height="26" as="geometry"/>
                </mxCell>
                <mxCell id="505" value="「商品一覧」画面" style="swimlane;fontStyle=1;childLayout=stackLayout;horizontal=1;startSize=30;horizontalStack=0;resizeParent=1;resizeParentMax=0;resizeLast=0;collapsible=1;marginBottom=0;whiteSpace=wrap;html=1;shadow=0;strokeColor=#d6b656;fontFamily=Helvetica;fontSize=12;fillColor=#fff2cc;align=center;rounded=1;strokeWidth=3;" parent="1" vertex="1">
                    <mxGeometry x="1200" y="288.77" width="183" height="120" as="geometry"/>
                </mxCell>
                <mxCell id="731" value="「詳細」をクリック" style="text;align=center;verticalAlign=middle;spacingLeft=4;spacingRight=4;overflow=hidden;points=[[0,0.5],[1,0.5]];portConstraint=eastwest;rotatable=0;whiteSpace=wrap;html=1;shadow=0;fontFamily=Helvetica;fontSize=12;strokeColor=#D6B656;rounded=1;strokeWidth=3;" parent="505" vertex="1">
                    <mxGeometry y="30" width="183" height="30" as="geometry"/>
                </mxCell>
                <mxCell id="732" value="「レビューを見る」をクリック" style="text;align=center;verticalAlign=middle;spacingLeft=4;spacingRight=4;overflow=hidden;points=[[0,0.5],[1,0.5]];portConstraint=eastwest;rotatable=0;whiteSpace=wrap;html=1;shadow=0;fontFamily=Helvetica;fontSize=12;strokeColor=#D6B656;rounded=1;strokeWidth=3;" parent="505" vertex="1">
                    <mxGeometry y="60" width="183" height="30" as="geometry"/>
                </mxCell>
                <mxCell id="506" value="「レビューを書く」をクリック" style="text;align=center;verticalAlign=middle;spacingLeft=4;spacingRight=4;overflow=hidden;points=[[0,0.5],[1,0.5]];portConstraint=eastwest;rotatable=0;whiteSpace=wrap;html=1;shadow=0;fontFamily=Helvetica;fontSize=12;strokeColor=#D6B656;rounded=1;strokeWidth=3;" parent="505" vertex="1">
                    <mxGeometry y="90" width="183" height="30" as="geometry"/>
                </mxCell>
                <mxCell id="512" value="" style="endArrow=classic;html=1;fontFamily=Helvetica;fontSize=12;fontColor=default;startSize=30;edgeStyle=elbowEdgeStyle;elbow=vertical;fontStyle=0;rounded=1;strokeWidth=3;" parent="1" edge="1">
                    <mxGeometry width="50" height="50" relative="1" as="geometry">
                        <mxPoint x="-112" y="97" as="sourcePoint"/>
                        <mxPoint x="-447" y="200" as="targetPoint"/>
                        <Array as="points">
                            <mxPoint x="-122" y="130"/>
                            <mxPoint x="-108" y="135"/>
                            <mxPoint x="-199" y="135"/>
                            <mxPoint x="-356" y="134.87"/>
                        </Array>
                    </mxGeometry>
                </mxCell>
                <mxCell id="513" value="「ホーム」画面" style="swimlane;fontStyle=1;childLayout=stackLayout;horizontal=1;startSize=26;fillColor=#fff2cc;horizontalStack=0;resizeParent=1;resizeParentMax=0;resizeLast=0;collapsible=1;marginBottom=0;html=1;shadow=0;strokeColor=#d6b656;fontFamily=Helvetica;fontSize=12;rounded=1;strokeWidth=3;" parent="1" vertex="1">
                    <mxGeometry x="-541" y="203" width="183" height="59" as="geometry"/>
                </mxCell>
                <mxCell id="514" value="「商品を探す」をクリック" style="text;strokeColor=none;fillColor=none;align=center;verticalAlign=middle;spacingLeft=4;spacingRight=4;overflow=hidden;rotatable=0;points=[[0,0.5],[1,0.5]];portConstraint=eastwest;whiteSpace=wrap;html=1;shadow=0;fontFamily=Helvetica;fontSize=12;fontColor=default;startSize=30;rounded=1;strokeWidth=3;" parent="513" vertex="1">
                    <mxGeometry y="26" width="183" height="33" as="geometry"/>
                </mxCell>
                <mxCell id="872" style="edgeStyle=none;html=1;" edge="1" parent="1" source="515">
                    <mxGeometry relative="1" as="geometry">
                        <mxPoint x="-455" y="522" as="targetPoint"/>
                    </mxGeometry>
                </mxCell>
                <mxCell id="515" value="「商品詳細」画面" style="swimlane;fontStyle=1;childLayout=stackLayout;horizontal=1;startSize=30;horizontalStack=0;resizeParent=1;resizeParentMax=0;resizeLast=0;collapsible=1;marginBottom=0;whiteSpace=wrap;html=1;shadow=0;strokeColor=#d6b656;fontFamily=Helvetica;fontSize=12;fillColor=#fff2cc;align=center;rounded=1;strokeWidth=3;" parent="1" vertex="1">
                    <mxGeometry x="-553" y="526.23" width="206" height="120" as="geometry"/>
                </mxCell>
                <mxCell id="877" value="" style="edgeStyle=segmentEdgeStyle;endArrow=classic;html=1;curved=0;rounded=1;endSize=8;startSize=8;labelBackgroundColor=default;strokeColor=default;fontFamily=Helvetica;fontSize=11;fontColor=default;shape=connector;fontStyle=0;strokeWidth=3;" edge="1" parent="515">
                    <mxGeometry width="50" height="50" relative="1" as="geometry">
                        <mxPoint x="198" y="-145.23000000000002" as="sourcePoint"/>
                        <mxPoint x="46" y="-6.230000000000018" as="targetPoint"/>
                        <Array as="points">
                            <mxPoint x="198" y="-143"/>
                            <mxPoint x="250" y="-143"/>
                            <mxPoint x="250" y="-48"/>
                            <mxPoint x="44" y="-48"/>
                            <mxPoint x="44" y="-25"/>
                            <mxPoint x="46" y="-25"/>
                        </Array>
                    </mxGeometry>
                </mxCell>
                <mxCell id="740" value="「カート追加」をクリック" style="text;align=center;verticalAlign=middle;spacingLeft=4;spacingRight=4;overflow=hidden;points=[[0,0.5],[1,0.5]];portConstraint=eastwest;rotatable=0;whiteSpace=wrap;html=1;shadow=0;fontFamily=Helvetica;fontSize=12;strokeColor=#D6B656;rounded=1;strokeWidth=3;" parent="515" vertex="1">
                    <mxGeometry y="30" width="206" height="30" as="geometry"/>
                </mxCell>
                <mxCell id="741" value="「レビューを保存する」をクリック" style="text;align=center;verticalAlign=middle;spacingLeft=4;spacingRight=4;overflow=hidden;points=[[0,0.5],[1,0.5]];portConstraint=eastwest;rotatable=0;whiteSpace=wrap;html=1;shadow=0;fontFamily=Helvetica;fontSize=12;strokeColor=#D6B656;rounded=1;strokeWidth=3;" parent="515" vertex="1">
                    <mxGeometry y="60" width="206" height="30" as="geometry"/>
                </mxCell>
                <mxCell id="516" value="「他のレビューを見る」をクリック" style="text;align=center;verticalAlign=middle;spacingLeft=4;spacingRight=4;overflow=hidden;points=[[0,0.5],[1,0.5]];portConstraint=eastwest;rotatable=0;whiteSpace=wrap;html=1;shadow=0;fontFamily=Helvetica;fontSize=12;strokeColor=#D6B656;rounded=1;strokeWidth=3;" parent="515" vertex="1">
                    <mxGeometry y="90" width="206" height="30" as="geometry"/>
                </mxCell>
                <mxCell id="517" value="「商品一覧」画面" style="swimlane;fontStyle=1;childLayout=stackLayout;horizontal=1;startSize=30;horizontalStack=0;resizeParent=1;resizeParentMax=0;resizeLast=0;collapsible=1;marginBottom=0;whiteSpace=wrap;html=1;shadow=0;strokeColor=#d6b656;fontFamily=Helvetica;fontSize=12;fillColor=#fff2cc;align=center;rounded=1;strokeWidth=3;" parent="1" vertex="1">
                    <mxGeometry x="-541" y="304.13" width="180" height="150" as="geometry"/>
                </mxCell>
                <mxCell id="871" value="「詳細」をクリック" style="text;align=center;verticalAlign=middle;spacingLeft=4;spacingRight=4;overflow=hidden;points=[[0,0.5],[1,0.5]];portConstraint=eastwest;rotatable=0;whiteSpace=wrap;html=1;shadow=0;fontFamily=Helvetica;fontSize=12;strokeColor=#D6B656;rounded=1;strokeWidth=3;" vertex="1" parent="517">
                    <mxGeometry y="30" width="180" height="30" as="geometry"/>
                </mxCell>
                <mxCell id="685" value="「在庫数」をクリック" style="text;align=center;verticalAlign=middle;spacingLeft=4;spacingRight=4;overflow=hidden;points=[[0,0.5],[1,0.5]];portConstraint=eastwest;rotatable=0;whiteSpace=wrap;html=1;shadow=0;fontFamily=Helvetica;fontSize=12;strokeColor=#D6B656;rounded=1;strokeWidth=3;" parent="517" vertex="1">
                    <mxGeometry y="60" width="180" height="30" as="geometry"/>
                </mxCell>
                <mxCell id="686" value="「レビューを見る」をクリック" style="text;align=center;verticalAlign=middle;spacingLeft=4;spacingRight=4;overflow=hidden;points=[[0,0.5],[1,0.5]];portConstraint=eastwest;rotatable=0;whiteSpace=wrap;html=1;shadow=0;fontFamily=Helvetica;fontSize=12;strokeColor=#D6B656;rounded=1;strokeWidth=3;" parent="517" vertex="1">
                    <mxGeometry y="90" width="180" height="30" as="geometry"/>
                </mxCell>
                <mxCell id="518" value="「レビューを書く」をクリック" style="text;align=center;verticalAlign=middle;spacingLeft=4;spacingRight=4;overflow=hidden;points=[[0,0.5],[1,0.5]];portConstraint=eastwest;rotatable=0;whiteSpace=wrap;html=1;shadow=0;fontFamily=Helvetica;fontSize=12;strokeColor=#D6B656;rounded=1;strokeWidth=3;" parent="517" vertex="1">
                    <mxGeometry y="120" width="180" height="30" as="geometry"/>
                </mxCell>
                <mxCell id="522" value="" style="endArrow=classic;html=1;fontFamily=Helvetica;fontSize=12;fontColor=default;startSize=30;edgeStyle=elbowEdgeStyle;elbow=vertical;entryX=0.425;entryY=0;entryDx=0;entryDy=0;entryPerimeter=0;rounded=1;strokeWidth=3;" parent="1" edge="1">
                    <mxGeometry width="50" height="50" relative="1" as="geometry">
                        <mxPoint x="247.5" y="94" as="sourcePoint"/>
                        <mxPoint x="157.94999999999982" y="147" as="targetPoint"/>
                        <Array as="points">
                            <mxPoint x="151" y="117"/>
                            <mxPoint x="301" y="114"/>
                            <mxPoint x="222" y="116"/>
                            <mxPoint x="132" y="129"/>
                            <mxPoint x="153" y="119"/>
                            <mxPoint x="103" y="126"/>
                            <mxPoint x="79" y="126"/>
                        </Array>
                    </mxGeometry>
                </mxCell>
                <mxCell id="527" value="" style="edgeStyle=segmentEdgeStyle;endArrow=classic;html=1;curved=0;rounded=1;endSize=8;startSize=8;labelBackgroundColor=default;strokeColor=default;fontFamily=Helvetica;fontSize=11;fontColor=default;shape=connector;strokeWidth=3;" parent="1" edge="1">
                    <mxGeometry width="50" height="50" relative="1" as="geometry">
                        <mxPoint x="-454" y="266" as="sourcePoint"/>
                        <mxPoint x="-454" y="302" as="targetPoint"/>
                        <Array as="points">
                            <mxPoint x="-454" y="281"/>
                            <mxPoint x="-454" y="281"/>
                        </Array>
                    </mxGeometry>
                </mxCell>
                <mxCell id="533" value="" style="edgeStyle=segmentEdgeStyle;endArrow=classic;html=1;curved=0;rounded=1;endSize=8;startSize=8;labelBackgroundColor=default;strokeColor=default;fontFamily=Helvetica;fontSize=11;fontColor=default;shape=connector;fontStyle=0;strokeWidth=3;" parent="1" target="515" edge="1">
                    <mxGeometry width="50" height="50" relative="1" as="geometry">
                        <mxPoint x="-356" y="357" as="sourcePoint"/>
                        <mxPoint x="-552" y="500" as="targetPoint"/>
                        <Array as="points">
                            <mxPoint x="-321" y="357"/>
                            <mxPoint x="-321" y="491"/>
                            <mxPoint x="-407" y="491"/>
                        </Array>
                    </mxGeometry>
                </mxCell>
                <mxCell id="534" value="" style="edgeStyle=segmentEdgeStyle;endArrow=classic;html=1;curved=0;rounded=1;endSize=8;startSize=8;exitX=0.557;exitY=0.933;exitDx=0;exitDy=0;exitPerimeter=0;fontStyle=0;strokeWidth=3;" parent="1" source="365" edge="1">
                    <mxGeometry width="50" height="50" relative="1" as="geometry">
                        <mxPoint x="372" y="220" as="sourcePoint"/>
                        <mxPoint x="-353" y="217" as="targetPoint"/>
                        <Array as="points">
                            <mxPoint x="551" y="222"/>
                            <mxPoint x="-252" y="222"/>
                            <mxPoint x="-252" y="217"/>
                        </Array>
                    </mxGeometry>
                </mxCell>
                <mxCell id="584" value="" style="endArrow=classic;html=1;fontFamily=Helvetica;fontSize=12;fontColor=default;startSize=30;rounded=1;strokeWidth=3;" parent="1" edge="1">
                    <mxGeometry width="50" height="50" relative="1" as="geometry">
                        <mxPoint x="1290" y="215.5" as="sourcePoint"/>
                        <mxPoint x="1289.5" y="286.5" as="targetPoint"/>
                        <Array as="points">
                            <mxPoint x="1290" y="237.5"/>
                        </Array>
                    </mxGeometry>
                </mxCell>
                <mxCell id="587" value="" style="endArrow=classic;html=1;fontFamily=Helvetica;fontSize=12;fontColor=default;startSize=30;rounded=1;strokeWidth=3;" parent="1" edge="1">
                    <mxGeometry width="50" height="50" relative="1" as="geometry">
                        <mxPoint x="1751.26" y="95" as="sourcePoint"/>
                        <mxPoint x="1751.0007407407409" y="155" as="targetPoint"/>
                        <Array as="points">
                            <mxPoint x="1751.26" y="127"/>
                        </Array>
                    </mxGeometry>
                </mxCell>
                <mxCell id="691" value="" style="edgeStyle=elbowEdgeStyle;elbow=horizontal;endArrow=classic;html=1;curved=0;rounded=1;endSize=8;startSize=8;exitX=-0.01;exitY=0.567;exitDx=0;exitDy=0;exitPerimeter=0;fontStyle=0;strokeWidth=3;" parent="1" source="740" edge="1">
                    <mxGeometry width="50" height="50" relative="1" as="geometry">
                        <mxPoint x="-577" y="499.27" as="sourcePoint"/>
                        <mxPoint x="63" y="153" as="targetPoint"/>
                        <Array as="points">
                            <mxPoint x="-585" y="344"/>
                            <mxPoint x="-587" y="511"/>
                            <mxPoint x="-587" y="341"/>
                            <mxPoint x="-542" y="385"/>
                            <mxPoint x="-558" y="341"/>
                        </Array>
                    </mxGeometry>
                </mxCell>
                <mxCell id="696" value="「レビュー一覧」画面" style="swimlane;fontStyle=1;childLayout=stackLayout;horizontal=1;startSize=30;horizontalStack=0;resizeParent=1;resizeParentMax=0;resizeLast=0;collapsible=1;marginBottom=0;whiteSpace=wrap;html=1;shadow=0;strokeColor=#d6b656;fontFamily=Helvetica;fontSize=12;fillColor=#fff2cc;align=center;rounded=1;strokeWidth=3;" parent="1" vertex="1">
                    <mxGeometry x="-854" y="362.5" width="183" height="60" as="geometry"/>
                </mxCell>
                <mxCell id="697" value="「戻る」をクリック" style="text;align=center;verticalAlign=middle;spacingLeft=4;spacingRight=4;overflow=hidden;points=[[0,0.5],[1,0.5]];portConstraint=eastwest;rotatable=0;whiteSpace=wrap;html=1;shadow=0;fontFamily=Helvetica;fontSize=12;strokeColor=#D6B656;rounded=1;strokeWidth=3;" parent="696" vertex="1">
                    <mxGeometry y="30" width="183" height="30" as="geometry"/>
                </mxCell>
                <mxCell id="698" value="" style="edgeStyle=segmentEdgeStyle;endArrow=classic;html=1;curved=0;rounded=1;endSize=8;startSize=8;labelBackgroundColor=default;strokeColor=default;fontFamily=Helvetica;fontSize=11;fontColor=default;shape=connector;entryX=0.383;entryY=-0.042;entryDx=0;entryDy=0;entryPerimeter=0;fontStyle=0;strokeWidth=3;" parent="1" target="696" edge="1">
                    <mxGeometry width="50" height="50" relative="1" as="geometry">
                        <mxPoint x="-541" y="413" as="sourcePoint"/>
                        <mxPoint x="-788" y="335" as="targetPoint"/>
                        <Array as="points">
                            <mxPoint x="-605" y="413"/>
                            <mxPoint x="-605" y="335"/>
                            <mxPoint x="-784" y="335"/>
                        </Array>
                    </mxGeometry>
                </mxCell>
                <mxCell id="701" value="" style="edgeStyle=elbowEdgeStyle;elbow=horizontal;endArrow=classic;html=1;curved=0;rounded=1;endSize=8;startSize=8;fontStyle=0;strokeWidth=3;" parent="1" edge="1">
                    <mxGeometry width="50" height="50" relative="1" as="geometry">
                        <mxPoint x="-663" y="415" as="sourcePoint"/>
                        <mxPoint x="-542" y="320" as="targetPoint"/>
                        <Array as="points">
                            <mxPoint x="-632" y="358"/>
                        </Array>
                    </mxGeometry>
                </mxCell>
                <mxCell id="710" value="" style="edgeStyle=elbowEdgeStyle;elbow=horizontal;endArrow=classic;html=1;curved=0;rounded=1;endSize=8;startSize=8;fontStyle=0;strokeWidth=3;" parent="1" source="741" edge="1">
                    <mxGeometry width="50" height="50" relative="1" as="geometry">
                        <mxPoint x="-878.9870000000001" y="505" as="sourcePoint"/>
                        <mxPoint x="-859" y="378" as="targetPoint"/>
                        <Array as="points">
                            <mxPoint x="-891" y="477"/>
                        </Array>
                    </mxGeometry>
                </mxCell>
                <mxCell id="711" value="" style="edgeStyle=elbowEdgeStyle;elbow=horizontal;endArrow=classic;html=1;curved=0;rounded=1;endSize=8;startSize=8;exitX=-0.01;exitY=0.567;exitDx=0;exitDy=0;exitPerimeter=0;fontStyle=0;strokeWidth=3;" parent="1" source="516" edge="1">
                    <mxGeometry width="50" height="50" relative="1" as="geometry">
                        <mxPoint x="-864.03" y="535" as="sourcePoint"/>
                        <mxPoint x="-859" y="366" as="targetPoint"/>
                        <Array as="points">
                            <mxPoint x="-910" y="478"/>
                            <mxPoint x="-1051" y="447"/>
                        </Array>
                    </mxGeometry>
                </mxCell>
                <mxCell id="718" value="「レビュー一覧」画面" style="swimlane;fontStyle=1;childLayout=stackLayout;horizontal=1;startSize=30;horizontalStack=0;resizeParent=1;resizeParentMax=0;resizeLast=0;collapsible=1;marginBottom=0;whiteSpace=wrap;html=1;shadow=0;strokeColor=#d6b656;fontFamily=Helvetica;fontSize=12;fillColor=#fff2cc;align=center;rounded=1;strokeWidth=3;" parent="1" vertex="1">
                    <mxGeometry x="1198" y="455.5" width="183" height="60" as="geometry"/>
                </mxCell>
                <mxCell id="719" value="「戻る」をクリック" style="text;align=center;verticalAlign=middle;spacingLeft=4;spacingRight=4;overflow=hidden;points=[[0,0.5],[1,0.5]];portConstraint=eastwest;rotatable=0;whiteSpace=wrap;html=1;shadow=0;fontFamily=Helvetica;fontSize=12;strokeColor=#D6B656;rounded=1;strokeWidth=3;" parent="718" vertex="1">
                    <mxGeometry y="30" width="183" height="30" as="geometry"/>
                </mxCell>
                <mxCell id="733" value="" style="edgeStyle=segmentEdgeStyle;endArrow=classic;html=1;curved=0;rounded=1;endSize=8;startSize=8;exitX=1.027;exitY=0.491;exitDx=0;exitDy=0;exitPerimeter=0;strokeWidth=3;entryX=0.412;entryY=1.135;entryDx=0;entryDy=0;entryPerimeter=0;" parent="1" source="731" target="268" edge="1">
                    <mxGeometry width="50" height="50" relative="1" as="geometry">
                        <mxPoint x="1422" y="376" as="sourcePoint"/>
                        <mxPoint x="1683" y="219" as="targetPoint"/>
                        <Array as="points">
                            <mxPoint x="1802" y="334"/>
                        </Array>
                    </mxGeometry>
                </mxCell>
                <mxCell id="734" value="" style="endArrow=classic;html=1;fontFamily=Helvetica;fontSize=12;fontColor=default;startSize=30;edgeStyle=elbowEdgeStyle;elbow=vertical;rounded=1;strokeWidth=3;entryX=0.714;entryY=-0.135;entryDx=0;entryDy=0;entryPerimeter=0;" parent="1" target="221" edge="1">
                    <mxGeometry width="50" height="50" relative="1" as="geometry">
                        <mxPoint x="1902" y="95" as="sourcePoint"/>
                        <mxPoint x="2034" y="137" as="targetPoint"/>
                        <Array as="points">
                            <mxPoint x="1906" y="124"/>
                        </Array>
                    </mxGeometry>
                </mxCell>
                <mxCell id="735" value="" style="edgeStyle=elbowEdgeStyle;elbow=horizontal;endArrow=classic;html=1;curved=0;rounded=1;endSize=8;startSize=8;entryX=0;entryY=0.233;entryDx=0;entryDy=0;entryPerimeter=0;strokeWidth=3;" parent="1" target="718" edge="1">
                    <mxGeometry width="50" height="50" relative="1" as="geometry">
                        <mxPoint x="1195" y="363.5" as="sourcePoint"/>
                        <mxPoint x="1551" y="345.5" as="targetPoint"/>
                        <Array as="points">
                            <mxPoint x="1126" y="422.5"/>
                            <mxPoint x="1513" y="415.5"/>
                        </Array>
                    </mxGeometry>
                </mxCell>
                <mxCell id="739" value="" style="edgeStyle=elbowEdgeStyle;elbow=horizontal;endArrow=classic;html=1;curved=0;rounded=1;endSize=8;startSize=8;strokeWidth=3;" parent="1" edge="1">
                    <mxGeometry width="50" height="50" relative="1" as="geometry">
                        <mxPoint x="1387" y="393.5" as="sourcePoint"/>
                        <mxPoint x="1724" y="168" as="targetPoint"/>
                        <Array as="points">
                            <mxPoint x="1693" y="276"/>
                            <mxPoint x="1480" y="310"/>
                        </Array>
                    </mxGeometry>
                </mxCell>
                <mxCell id="744" value="失敗" style="text;strokeColor=none;fillColor=none;align=left;verticalAlign=top;spacingLeft=4;spacingRight=4;overflow=hidden;rotatable=0;points=[[0,0.5],[1,0.5]];portConstraint=eastwest;whiteSpace=wrap;html=1;shadow=0;fontFamily=Helvetica;fontSize=10;fontColor=default;startSize=30;fontStyle=1;rounded=1;strokeWidth=3;" parent="1" vertex="1">
                    <mxGeometry x="-344" y="513" width="37" height="21" as="geometry"/>
                </mxCell>
                <mxCell id="745" value="" style="endArrow=classic;html=1;fontFamily=Helvetica;fontSize=12;fontColor=default;startSize=30;edgeStyle=orthogonalEdgeStyle;elbow=vertical;curved=1;fontStyle=0;rounded=1;strokeWidth=3;" parent="1" edge="1">
                    <mxGeometry width="50" height="50" relative="1" as="geometry">
                        <mxPoint x="-341" y="605" as="sourcePoint"/>
                        <mxPoint x="-343" y="545" as="targetPoint"/>
                        <Array as="points">
                            <mxPoint x="-291" y="605"/>
                            <mxPoint x="-291" y="545"/>
                        </Array>
                    </mxGeometry>
                </mxCell>
                <mxCell id="746" value="成功" style="text;strokeColor=none;fillColor=none;align=left;verticalAlign=top;spacingLeft=4;spacingRight=4;overflow=hidden;rotatable=0;points=[[0,0.5],[1,0.5]];portConstraint=eastwest;whiteSpace=wrap;html=1;shadow=0;fontFamily=Helvetica;fontSize=10;fontColor=default;startSize=30;fontStyle=1;rounded=1;strokeWidth=3;" parent="1" vertex="1">
                    <mxGeometry x="-627" y="531.5" width="37" height="21" as="geometry"/>
                </mxCell>
                <mxCell id="751" value="" style="edgeStyle=elbowEdgeStyle;elbow=horizontal;endArrow=classic;html=1;curved=0;rounded=1;endSize=8;startSize=8;exitX=-0.016;exitY=0.533;exitDx=0;exitDy=0;exitPerimeter=0;strokeWidth=3;" parent="1" source="719" edge="1">
                    <mxGeometry width="50" height="50" relative="1" as="geometry">
                        <mxPoint x="1557" y="365.5" as="sourcePoint"/>
                        <mxPoint x="1196" y="302.5" as="targetPoint"/>
                        <Array as="points">
                            <mxPoint x="1106" y="409.5"/>
                            <mxPoint x="1182" y="307.5"/>
                            <mxPoint x="1113" y="402.5"/>
                        </Array>
                    </mxGeometry>
                </mxCell>
                <mxCell id="775" value="" style="edgeStyle=segmentEdgeStyle;endArrow=classic;html=1;curved=0;rounded=1;endSize=8;startSize=8;labelBackgroundColor=default;strokeColor=default;fontFamily=Helvetica;fontSize=11;fontColor=default;shape=connector;entryX=0.179;entryY=0.017;entryDx=0;entryDy=0;entryPerimeter=0;strokeWidth=3;" parent="1" target="356" edge="1">
                    <mxGeometry width="50" height="50" relative="1" as="geometry">
                        <mxPoint x="70" y="328.13" as="sourcePoint"/>
                        <mxPoint x="115" y="122" as="targetPoint"/>
                        <Array as="points">
                            <mxPoint x="38" y="328"/>
                            <mxPoint x="38" y="113"/>
                            <mxPoint x="101" y="113"/>
                        </Array>
                    </mxGeometry>
                </mxCell>
                <mxCell id="814" value="" style="edgeStyle=segmentEdgeStyle;endArrow=classic;html=1;curved=0;rounded=1;endSize=8;startSize=8;labelBackgroundColor=default;strokeColor=default;fontFamily=Helvetica;fontSize=11;fontColor=default;shape=connector;strokeWidth=3;exitX=0.472;exitY=1.129;exitDx=0;exitDy=0;exitPerimeter=0;" parent="1" edge="1" source="518">
                    <mxGeometry width="50" height="50" relative="1" as="geometry">
                        <mxPoint x="-455" y="474.5" as="sourcePoint"/>
                        <mxPoint x="-455" y="517.5" as="targetPoint"/>
                        <Array as="points">
                            <mxPoint x="-455" y="458"/>
                        </Array>
                    </mxGeometry>
                </mxCell>
                <mxCell id="816" value="" style="edgeStyle=segmentEdgeStyle;endArrow=classic;html=1;curved=0;rounded=1;endSize=8;startSize=8;labelBackgroundColor=default;strokeColor=default;fontFamily=Helvetica;fontSize=11;fontColor=default;shape=connector;fontStyle=0;strokeWidth=3;" parent="1" edge="1">
                    <mxGeometry width="50" height="50" relative="1" as="geometry">
                        <mxPoint x="246" y="294" as="sourcePoint"/>
                        <mxPoint x="255" y="419" as="targetPoint"/>
                        <Array as="points">
                            <mxPoint x="314" y="294"/>
                            <mxPoint x="314" y="419"/>
                        </Array>
                    </mxGeometry>
                </mxCell>
                <mxCell id="823" value="" style="endArrow=classic;html=1;fontFamily=Helvetica;fontSize=12;fontColor=default;startSize=30;edgeStyle=orthogonalEdgeStyle;elbow=vertical;curved=1;rounded=1;strokeWidth=3;" parent="1" edge="1">
                    <mxGeometry width="50" height="50" relative="1" as="geometry">
                        <mxPoint x="635" y="194" as="sourcePoint"/>
                        <mxPoint x="633" y="167" as="targetPoint"/>
                        <Array as="points">
                            <mxPoint x="677" y="194"/>
                            <mxPoint x="677" y="167"/>
                        </Array>
                    </mxGeometry>
                </mxCell>
                <mxCell id="824" value="失敗" style="text;strokeColor=none;fillColor=none;align=left;verticalAlign=top;spacingLeft=4;spacingRight=4;overflow=hidden;rotatable=0;points=[[0,0.5],[1,0.5]];portConstraint=eastwest;whiteSpace=wrap;html=1;shadow=0;fontFamily=Helvetica;fontSize=10;fontColor=default;startSize=30;fontStyle=1;rounded=1;strokeWidth=3;" parent="1" vertex="1">
                    <mxGeometry x="655" y="144" width="37" height="21" as="geometry"/>
                </mxCell>
                <mxCell id="825" value="" style="endArrow=classic;html=1;fontFamily=Helvetica;fontSize=12;fontColor=default;startSize=30;edgeStyle=orthogonalEdgeStyle;elbow=vertical;curved=1;rounded=1;strokeWidth=3;" parent="1" edge="1">
                    <mxGeometry width="50" height="50" relative="1" as="geometry">
                        <mxPoint x="939.5" y="405.5" as="sourcePoint"/>
                        <mxPoint x="937.5" y="378.5" as="targetPoint"/>
                        <Array as="points">
                            <mxPoint x="981.5" y="405.5"/>
                            <mxPoint x="981.5" y="378.5"/>
                        </Array>
                    </mxGeometry>
                </mxCell>
                <mxCell id="826" value="失敗" style="text;strokeColor=none;fillColor=none;align=left;verticalAlign=top;spacingLeft=4;spacingRight=4;overflow=hidden;rotatable=0;points=[[0,0.5],[1,0.5]];portConstraint=eastwest;whiteSpace=wrap;html=1;shadow=0;fontFamily=Helvetica;fontSize=10;fontColor=default;startSize=30;fontStyle=1;rounded=1;strokeWidth=3;" parent="1" vertex="1">
                    <mxGeometry x="959.5" y="355.5" width="37" height="21" as="geometry"/>
                </mxCell>
                <mxCell id="828" value="成功" style="text;strokeColor=none;fillColor=none;align=left;verticalAlign=top;spacingLeft=4;spacingRight=4;overflow=hidden;rotatable=0;points=[[0,0.5],[1,0.5]];portConstraint=eastwest;whiteSpace=wrap;html=1;shadow=0;fontFamily=Helvetica;fontSize=10;fontColor=default;startSize=30;fontStyle=1;rounded=1;strokeWidth=3;" parent="1" vertex="1">
                    <mxGeometry x="559" y="208" width="37" height="21" as="geometry"/>
                </mxCell>
                <mxCell id="829" value="" style="edgeStyle=orthogonalEdgeStyle;endArrow=classic;html=1;rounded=1;endSize=8;startSize=8;labelBackgroundColor=default;strokeColor=default;fontFamily=Helvetica;fontSize=11;fontColor=default;shape=connector;strokeWidth=3;" parent="1" edge="1">
                    <mxGeometry width="50" height="50" relative="1" as="geometry">
                        <mxPoint x="760" y="436" as="sourcePoint"/>
                        <mxPoint x="1200" y="175" as="targetPoint"/>
                        <Array as="points">
                            <mxPoint x="681" y="436"/>
                            <mxPoint x="681" y="522"/>
                            <mxPoint x="1034" y="522"/>
                            <mxPoint x="1034" y="175"/>
                        </Array>
                    </mxGeometry>
                </mxCell>
                <mxCell id="830" value="成功" style="text;strokeColor=none;fillColor=none;align=left;verticalAlign=top;spacingLeft=4;spacingRight=4;overflow=hidden;rotatable=0;points=[[0,0.5],[1,0.5]];portConstraint=eastwest;whiteSpace=wrap;html=1;shadow=0;fontFamily=Helvetica;fontSize=10;fontColor=default;startSize=30;fontStyle=1;rounded=1;strokeWidth=3;" parent="1" vertex="1">
                    <mxGeometry x="640" y="273" width="37" height="21" as="geometry"/>
                </mxCell>
                <mxCell id="831" value="成功" style="text;strokeColor=none;fillColor=none;align=left;verticalAlign=top;spacingLeft=4;spacingRight=4;overflow=hidden;rotatable=0;points=[[0,0.5],[1,0.5]];portConstraint=eastwest;whiteSpace=wrap;html=1;shadow=0;fontFamily=Helvetica;fontSize=10;fontColor=default;startSize=30;fontStyle=1;rounded=1;strokeWidth=3;" parent="1" vertex="1">
                    <mxGeometry x="724" y="447.77" width="34" height="21" as="geometry"/>
                </mxCell>
                <mxCell id="833" value="" style="edgeStyle=segmentEdgeStyle;endArrow=classic;html=1;curved=0;rounded=1;endSize=8;startSize=8;labelBackgroundColor=default;strokeColor=default;fontFamily=Helvetica;fontSize=11;fontColor=default;shape=connector;fontStyle=0;strokeWidth=3;" parent="1" edge="1">
                    <mxGeometry width="50" height="50" relative="1" as="geometry">
                        <mxPoint x="947" y="205.45999999999992" as="sourcePoint"/>
                        <mxPoint x="857" y="353" as="targetPoint"/>
                        <Array as="points">
                            <mxPoint x="985" y="206"/>
                            <mxPoint x="985" y="296"/>
                            <mxPoint x="857" y="296"/>
                        </Array>
                    </mxGeometry>
                </mxCell>
                <mxCell id="834" value="失敗" style="text;strokeColor=none;fillColor=none;align=left;verticalAlign=top;spacingLeft=4;spacingRight=4;overflow=hidden;rotatable=0;points=[[0,0.5],[1,0.5]];portConstraint=eastwest;whiteSpace=wrap;html=1;shadow=0;fontFamily=Helvetica;fontSize=10;fontColor=default;startSize=30;fontStyle=1;rounded=1;strokeWidth=3;" parent="1" vertex="1">
                    <mxGeometry x="948" y="149.99999999999997" width="37" height="21" as="geometry"/>
                </mxCell>
                <mxCell id="835" value="" style="endArrow=classic;html=1;fontFamily=Helvetica;fontSize=12;fontColor=default;startSize=30;edgeStyle=orthogonalEdgeStyle;elbow=vertical;curved=1;fontStyle=0;rounded=1;strokeWidth=3;" parent="1" edge="1">
                    <mxGeometry width="50" height="50" relative="1" as="geometry">
                        <mxPoint x="949" y="262" as="sourcePoint"/>
                        <mxPoint x="949" y="182" as="targetPoint"/>
                        <Array as="points">
                            <mxPoint x="1012" y="262"/>
                            <mxPoint x="1012" y="182"/>
                        </Array>
                    </mxGeometry>
                </mxCell>
                <mxCell id="837" value="" style="edgeStyle=segmentEdgeStyle;endArrow=classic;html=1;curved=0;rounded=1;endSize=8;startSize=8;labelBackgroundColor=default;strokeColor=default;fontFamily=Helvetica;fontSize=11;fontColor=default;shape=connector;fontStyle=0;strokeWidth=3;exitX=1;exitY=0.5;exitDx=0;exitDy=0;" parent="1" source="346" edge="1">
                    <mxGeometry width="50" height="50" relative="1" as="geometry">
                        <mxPoint x="1012" y="431" as="sourcePoint"/>
                        <mxPoint x="795" y="355" as="targetPoint"/>
                        <Array as="points">
                            <mxPoint x="1005" y="434"/>
                            <mxPoint x="1005" y="310"/>
                            <mxPoint x="795" y="310"/>
                        </Array>
                    </mxGeometry>
                </mxCell>
                <mxCell id="838" value="失敗" style="text;strokeColor=none;fillColor=none;align=left;verticalAlign=top;spacingLeft=4;spacingRight=4;overflow=hidden;rotatable=0;points=[[0,0.5],[1,0.5]];portConstraint=eastwest;whiteSpace=wrap;html=1;shadow=0;fontFamily=Helvetica;fontSize=10;fontColor=default;startSize=30;fontStyle=1;rounded=1;strokeWidth=3;" parent="1" vertex="1">
                    <mxGeometry x="749" y="309" width="37" height="21" as="geometry"/>
                </mxCell>
                <mxCell id="839" value="" style="edgeStyle=segmentEdgeStyle;endArrow=classic;html=1;curved=0;rounded=1;endSize=8;startSize=8;labelBackgroundColor=default;strokeColor=default;fontFamily=Helvetica;fontSize=11;fontColor=default;shape=connector;strokeWidth=3;entryX=0.757;entryY=1.019;entryDx=0;entryDy=0;entryPerimeter=0;" parent="1" target="492" edge="1">
                    <mxGeometry width="50" height="50" relative="1" as="geometry">
                        <mxPoint x="767" y="268" as="sourcePoint"/>
                        <mxPoint x="1144" y="223" as="targetPoint"/>
                        <Array as="points">
                            <mxPoint x="767" y="268"/>
                            <mxPoint x="403" y="268"/>
                            <mxPoint x="403" y="606"/>
                            <mxPoint x="1428" y="606"/>
                            <mxPoint x="1428" y="261"/>
                            <mxPoint x="1351" y="261"/>
                        </Array>
                    </mxGeometry>
                </mxCell>
                <mxCell id="852" value="「ログイン」画面" style="swimlane;fontStyle=1;childLayout=stackLayout;horizontal=1;startSize=26;fillColor=#fff2cc;horizontalStack=0;resizeParent=1;resizeParentMax=0;resizeLast=0;collapsible=1;marginBottom=0;html=1;shadow=0;strokeColor=#d6b656;fontFamily=Helvetica;fontSize=12;rounded=1;strokeWidth=3;" parent="1" vertex="1">
                    <mxGeometry x="1435" y="152" width="177" height="52" as="geometry"/>
                </mxCell>
                <mxCell id="853" value="「ログインする」をクリック" style="text;strokeColor=none;fillColor=none;align=center;verticalAlign=top;spacingLeft=4;spacingRight=4;overflow=hidden;rotatable=0;points=[[0,0.5],[1,0.5]];portConstraint=eastwest;whiteSpace=wrap;html=1;shadow=0;fontFamily=Helvetica;fontSize=12;fontColor=default;startSize=30;rounded=1;strokeWidth=3;" parent="852" vertex="1">
                    <mxGeometry y="26" width="177" height="26" as="geometry"/>
                </mxCell>
                <mxCell id="854" value="失敗" style="text;strokeColor=none;fillColor=none;align=left;verticalAlign=top;spacingLeft=4;spacingRight=4;overflow=hidden;rotatable=0;points=[[0,0.5],[1,0.5]];portConstraint=eastwest;whiteSpace=wrap;html=1;shadow=0;fontFamily=Helvetica;fontSize=10;fontColor=default;startSize=30;fontStyle=1;rounded=1;strokeWidth=3;" parent="1" vertex="1">
                    <mxGeometry x="1654" y="144" width="37" height="21" as="geometry"/>
                </mxCell>
                <mxCell id="855" value="" style="endArrow=classic;html=1;fontFamily=Helvetica;fontSize=12;fontColor=default;startSize=30;edgeStyle=orthogonalEdgeStyle;elbow=vertical;curved=1;rounded=1;strokeWidth=3;" parent="1" edge="1">
                    <mxGeometry width="50" height="50" relative="1" as="geometry">
                        <mxPoint x="1621" y="194" as="sourcePoint"/>
                        <mxPoint x="1619" y="167" as="targetPoint"/>
                        <Array as="points">
                            <mxPoint x="1663" y="194"/>
                            <mxPoint x="1663" y="167"/>
                        </Array>
                    </mxGeometry>
                </mxCell>
                <mxCell id="856" value="&lt;span style=&quot;&quot;&gt;「注文履歴一覧」画面&lt;/span&gt;" style="swimlane;fontStyle=1;childLayout=stackLayout;horizontal=1;startSize=58;fillColor=#fff2cc;horizontalStack=0;resizeParent=1;resizeParentMax=0;resizeLast=0;collapsible=1;marginBottom=0;html=1;shadow=0;strokeColor=#d6b656;fontFamily=Helvetica;fontSize=12;rounded=1;strokeWidth=3;flipH=1;flipV=0;container=0;glass=1;" parent="1" vertex="1">
                    <mxGeometry x="2335" y="151" width="180" height="60" as="geometry"/>
                </mxCell>
                <mxCell id="857" value="" style="edgeStyle=orthogonalEdgeStyle;endArrow=classic;html=1;rounded=1;endSize=8;startSize=8;strokeWidth=3;" parent="1" edge="1">
                    <mxGeometry width="50" height="50" relative="1" as="geometry">
                        <mxPoint x="1524" y="206" as="sourcePoint"/>
                        <mxPoint x="2427" y="217" as="targetPoint"/>
                        <Array as="points">
                            <mxPoint x="1524" y="846"/>
                            <mxPoint x="2427" y="846"/>
                            <mxPoint x="2427" y="381"/>
                        </Array>
                    </mxGeometry>
                </mxCell>
                <mxCell id="858" value="" style="endArrow=classic;html=1;fontFamily=Helvetica;fontSize=12;fontColor=default;startSize=30;edgeStyle=elbowEdgeStyle;elbow=vertical;entryX=0.458;entryY=0;entryDx=0;entryDy=0;entryPerimeter=0;rounded=1;strokeWidth=3;" parent="1" edge="1">
                    <mxGeometry width="50" height="50" relative="1" as="geometry">
                        <mxPoint x="1607.43" y="91.5" as="sourcePoint"/>
                        <mxPoint x="1524.9959999999999" y="152.5" as="targetPoint"/>
                        <Array as="points">
                            <mxPoint x="1571.93" y="115.5"/>
                        </Array>
                    </mxGeometry>
                </mxCell>
                <mxCell id="859" value="成功" style="text;strokeColor=none;fillColor=none;align=left;verticalAlign=top;spacingLeft=4;spacingRight=4;overflow=hidden;rotatable=0;points=[[0,0.5],[1,0.5]];portConstraint=eastwest;whiteSpace=wrap;html=1;shadow=0;fontFamily=Helvetica;fontSize=10;fontColor=default;startSize=30;fontStyle=1;rounded=1;strokeWidth=3;" parent="1" vertex="1">
                    <mxGeometry x="721" y="372" width="37" height="21" as="geometry"/>
                </mxCell>
                <mxCell id="860" value="" style="endArrow=classic;html=1;fontFamily=Helvetica;fontSize=12;fontColor=default;startSize=30;edgeStyle=elbowEdgeStyle;elbow=vertical;rounded=1;strokeWidth=3;" edge="1" parent="1">
                    <mxGeometry width="50" height="50" relative="1" as="geometry">
                        <mxPoint x="437.55" y="97" as="sourcePoint"/>
                        <mxPoint x="572" y="140" as="targetPoint"/>
                        <Array as="points">
                            <mxPoint x="341.05" y="120"/>
                            <mxPoint x="491.05" y="117"/>
                            <mxPoint x="412.05" y="119"/>
                            <mxPoint x="322.05" y="132"/>
                            <mxPoint x="343.05" y="122"/>
                            <mxPoint x="293.05" y="129"/>
                            <mxPoint x="269.05" y="129"/>
                        </Array>
                    </mxGeometry>
                </mxCell>
                <mxCell id="861" value="" style="endArrow=classic;html=1;fontFamily=Helvetica;fontSize=12;fontColor=default;startSize=30;edgeStyle=elbowEdgeStyle;elbow=vertical;rounded=1;strokeWidth=3;" edge="1" parent="1">
                    <mxGeometry width="50" height="50" relative="1" as="geometry">
                        <mxPoint x="628.0000000000002" y="98" as="sourcePoint"/>
                        <mxPoint x="882" y="153" as="targetPoint"/>
                        <Array as="points">
                            <mxPoint x="531.5" y="121"/>
                            <mxPoint x="681.5" y="118"/>
                            <mxPoint x="602.5" y="120"/>
                            <mxPoint x="512.5" y="133"/>
                            <mxPoint x="533.5" y="123"/>
                            <mxPoint x="483.5" y="130"/>
                            <mxPoint x="459.5" y="130"/>
                        </Array>
                    </mxGeometry>
                </mxCell>
                <mxCell id="864" value="「買い物かご」画面" style="swimlane;fontStyle=1;childLayout=stackLayout;horizontal=1;startSize=30;horizontalStack=0;resizeParent=1;resizeParentMax=0;resizeLast=0;collapsible=1;marginBottom=0;whiteSpace=wrap;html=1;shadow=0;strokeColor=#d6b656;fontFamily=Helvetica;fontSize=12;fillColor=#fff2cc;align=center;rounded=1;strokeWidth=3;" vertex="1" parent="1">
                    <mxGeometry x="261" y="149" width="173.5" height="60" as="geometry"/>
                </mxCell>
                <mxCell id="865" value="「商品を探す」をクリック" style="text;align=center;verticalAlign=middle;spacingLeft=4;spacingRight=4;overflow=hidden;points=[[0,0.5],[1,0.5]];portConstraint=eastwest;rotatable=0;whiteSpace=wrap;html=1;shadow=0;fontFamily=Helvetica;fontSize=12;strokeColor=#D6B656;rounded=1;strokeWidth=3;" vertex="1" parent="864">
                    <mxGeometry y="30" width="173.5" height="30" as="geometry"/>
                </mxCell>
                <mxCell id="866" value="" style="endArrow=classic;html=1;fontFamily=Helvetica;fontSize=12;fontColor=default;startSize=30;edgeStyle=elbowEdgeStyle;elbow=vertical;rounded=1;strokeWidth=3;" edge="1" parent="1">
                    <mxGeometry width="50" height="50" relative="1" as="geometry">
                        <mxPoint x="249.00000000000017" y="95" as="sourcePoint"/>
                        <mxPoint x="383.45" y="138" as="targetPoint"/>
                        <Array as="points">
                            <mxPoint x="152.5" y="118"/>
                            <mxPoint x="302.5" y="115"/>
                            <mxPoint x="223.5" y="117"/>
                            <mxPoint x="133.5" y="130"/>
                            <mxPoint x="154.5" y="120"/>
                            <mxPoint x="104.5" y="127"/>
                            <mxPoint x="80.5" y="127"/>
                        </Array>
                    </mxGeometry>
                </mxCell>
                <mxCell id="867" value="カート未追加" style="text;strokeColor=none;fillColor=none;align=left;verticalAlign=top;spacingLeft=4;spacingRight=4;overflow=hidden;rotatable=0;points=[[0,0.5],[1,0.5]];portConstraint=eastwest;whiteSpace=wrap;html=1;shadow=0;fontFamily=Helvetica;fontSize=10;fontColor=default;startSize=30;fontStyle=1;rounded=1;strokeWidth=3;" vertex="1" parent="1">
                    <mxGeometry x="294" y="123" width="70" height="21" as="geometry"/>
                </mxCell>
                <mxCell id="868" value="カート追加" style="text;strokeColor=none;fillColor=none;align=left;verticalAlign=top;spacingLeft=4;spacingRight=4;overflow=hidden;rotatable=0;points=[[0,0.5],[1,0.5]];portConstraint=eastwest;whiteSpace=wrap;html=1;shadow=0;fontFamily=Helvetica;fontSize=10;fontColor=default;startSize=30;fontStyle=1;rounded=1;strokeWidth=3;" vertex="1" parent="1">
                    <mxGeometry x="181.5" y="123" width="70" height="21" as="geometry"/>
                </mxCell>
                <mxCell id="870" value="" style="edgeStyle=segmentEdgeStyle;endArrow=classic;html=1;curved=0;rounded=1;endSize=8;startSize=8;fontStyle=0;strokeWidth=3;entryX=1.036;entryY=0.3;entryDx=0;entryDy=0;entryPerimeter=0;" edge="1" parent="1" target="253">
                    <mxGeometry width="50" height="50" relative="1" as="geometry">
                        <mxPoint x="348" y="211" as="sourcePoint"/>
                        <mxPoint x="22" y="386" as="targetPoint"/>
                        <Array as="points">
                            <mxPoint x="348" y="213"/>
                            <mxPoint x="348" y="385"/>
                        </Array>
                    </mxGeometry>
                </mxCell>
                <mxCell id="878" value="" style="edgeStyle=elbowEdgeStyle;elbow=horizontal;endArrow=block;html=1;curved=0;rounded=0;endSize=8;startSize=8;endFill=0;dashed=1;fillColor=#6a00ff;strokeColor=#3700CC;fontStyle=0;strokeWidth=2;entryX=1.039;entryY=0.392;entryDx=0;entryDy=0;entryPerimeter=0;exitX=1.039;exitY=0.469;exitDx=0;exitDy=0;exitPerimeter=0;" edge="1" parent="1" source="879" target="740">
                    <mxGeometry width="50" height="50" relative="1" as="geometry">
                        <mxPoint x="-435" y="769" as="sourcePoint"/>
                        <mxPoint x="-335" y="585" as="targetPoint"/>
                        <Array as="points">
                            <mxPoint x="-281" y="668"/>
                            <mxPoint x="-280" y="665"/>
                        </Array>
                    </mxGeometry>
                </mxCell>
                <mxCell id="879" value="※注釈&lt;br&gt;「在庫数」がある場合のみ&lt;br&gt;カート追加が表示されます。" style="text;align=center;verticalAlign=middle;spacingLeft=4;spacingRight=4;overflow=hidden;points=[[0,0.5],[1,0.5]];portConstraint=eastwest;rotatable=0;whiteSpace=wrap;html=1;shadow=0;fontFamily=Helvetica;fontSize=12;strokeColor=#D6B656;rounded=1;strokeWidth=3;" vertex="1" parent="1">
                    <mxGeometry x="-540" y="712" width="180" height="49" as="geometry"/>
                </mxCell>
            </root>
        </mxGraphModel>
    </diagram>
</mxfile>